<svg viewBox="0 0 180.64 122.88" xmlns="http://www.w3.org/2000/svg" xmlns:xlink="http://www.w3.org/1999/xlink"><radialGradient id="a" cx="-152.85" cy="244.77" gradientTransform="matrix(.39 0 0 .39 182.66 29.86)" gradientUnits="userSpaceOnUse" r="56.98"><stop offset="0" stop-color="#f68d76"/><stop offset=".62" stop-color="#f25e69"/><stop offset="1" stop-color="#ef4060"/></radialGradient><linearGradient id="b" gradientTransform="matrix(.39 0 0 .39 182.66 29.86)" gradientUnits="userSpaceOnUse" x1="-176.52" x2="-185.59" y1="216.03" y2="206.95"><stop offset=".01" stop-color="#b8292f"/><stop offset=".84" stop-color="#e6455e"/><stop offset="1" stop-color="#ef4b67"/></linearGradient><linearGradient id="c" x1="-166.79" x2="-175.86" xlink:href="#b" y1="216.22" y2="207.14"/><linearGradient id="d" x1="-166.61" x2="-175.06" xlink:href="#b" y1="223.15" y2="214.69"/><linearGradient id="e" x1="-159.01" x2="-167.46" xlink:href="#b" y1="227.5" y2="219.05"/><linearGradient id="f" x1="-158.11" x2="-167.19" xlink:href="#b" y1="234.88" y2="225.8"/><radialGradient id="g" cx="166.05" cy="51.55" gradientUnits="userSpaceOnUse" r="43.62"><stop offset="0" stop-color="#f27179"/><stop offset=".08" stop-color="#ed1c24"/><stop offset=".46" stop-color="#be1015"/><stop offset=".84" stop-color="#8b0304"/><stop offset=".99" stop-color="#d71920"/></radialGradient><radialGradient id="h" cx="62.8" cy="-10.32" gradientTransform="translate(106.25 85.37)" gradientUnits="userSpaceOnUse" r="43.2"><stop offset="0" stop-color="#f27179"/><stop offset=".08" stop-color="#ed1c24"/><stop offset=".54" stop-color="#be1218"/><stop offset=".84" stop-color="#9e0b0f"/><stop offset=".99" stop-color="#d71920"/></radialGradient><radialGradient id="i" cx="-149.39" cy="-182.58" gradientTransform="translate(192.49 203.72)" r="6.97" xlink:href="#a"/><linearGradient id="j" gradientTransform="matrix(.39 0 0 .39 179.96 31.4)" x1="-356.03" x2="-402.03" xlink:href="#b" y1="123.66" y2="107.66"/><radialGradient id="k" cx="-392.35" cy="95.27" r="55.71" xlink:href="#a"/><radialGradient id="l" cx="-327.05" cy="494.78" gradientTransform="matrix(.23174921 .24878164 -.24878164 .23174921 247.83 37.59)" gradientUnits="userSpaceOnUse" r="6.07"><stop offset=".19" stop-color="#fed095"/><stop offset=".69" stop-color="#eea966"/><stop offset="1" stop-color="#e38e47"/></radialGradient><linearGradient id="m" gradientTransform="matrix(.39 0 0 .39 180.57 29.19)" x1="-368.51" x2="-375.01" xlink:href="#b" y1="115.43" y2="108.93"/><linearGradient id="n" gradientTransform="matrix(.33480124 -.17974462 .17974462 .33480124 167.41 9.71)" x1="-300.5" x2="-307" xlink:href="#b" y1="-131.55" y2="-138.05"/><linearGradient id="o" gradientTransform="matrix(.37 .1 -.1 .37 202.96 -36.64)" gradientUnits="userSpaceOnUse" x1="-354.73" x2="-361.23" y1="249.17" y2="242.67"><stop offset=".01" stop-color="#a02d32"/><stop offset=".61" stop-color="#cf3f51"/><stop offset="1" stop-color="#ef4b67"/></linearGradient><radialGradient id="p" cx="42.15" cy="12.91" gradientUnits="userSpaceOnUse" r="66.57"><stop offset=".01" stop-color="#f27179"/><stop offset=".08" stop-color="#ed1c24"/><stop offset=".46" stop-color="#be1015"/><stop offset=".84" stop-color="#8b0304"/><stop offset=".99" stop-color="#d71920"/></radialGradient><radialGradient id="q" cx="-5.07" cy="-75.99" gradientTransform="matrix(1.1 0 0 .97 86.86 79.89)" gradientUnits="userSpaceOnUse" r="77.18"><stop offset=".01" stop-color="#f27179"/><stop offset=".08" stop-color="#ed1c24"/><stop offset=".54" stop-color="#be1218"/><stop offset=".84" stop-color="#9e0b0f"/><stop offset=".99" stop-color="#d71920"/></radialGradient><radialGradient id="r" cx="10.83" cy="-63.78" gradientTransform="matrix(1.09 .19 -.19 1.09 76.5 82.5)" gradientUnits="userSpaceOnUse" r="21.31"><stop offset=".01" stop-color="#fff"/><stop offset=".21" stop-color="#fbfcfc"/><stop offset=".39" stop-color="#f1f1f1"/><stop offset=".56" stop-color="#dedfe0"/><stop offset=".73" stop-color="#c5c6c8"/><stop offset=".88" stop-color="#a7a9ac"/><stop offset="1" stop-color="#bcbec0"/></radialGradient><radialGradient id="s" cx="-17.37" cy="-63.78" gradientTransform="matrix(1.1 0 0 1.1 86.86 86.8)" r="21.25" xlink:href="#r"/><radialGradient id="t" cx="365.95" cy="-3.58" gradientTransform="matrix(-.52 .17 .17 .52 359.64 43.25)" r="39.73" xlink:href="#a"/><radialGradient id="u" cx="-124.89" cy="214.99" r="84.56" xlink:href="#a"/><radialGradient id="v" cx="26.55" cy="-20.32" gradientTransform="translate(106.25 85.37)" r="46.11" xlink:href="#q"/><linearGradient id="w" x1="-159.08" x2="-172.74" xlink:href="#b" y1="167.72" y2="154.06"/><linearGradient id="x" x1="-142.03" x2="-155.69" xlink:href="#b" y1="171.18" y2="157.52"/><linearGradient id="y" x1="-144.04" x2="-156.62" xlink:href="#b" y1="183.53" y2="170.95"/><linearGradient id="z" x1="-38.42" x2="-49.24" xlink:href="#b" y1="166.32" y2="155.49"/><linearGradient id="A" x1="-27.91" x2="-38.62" xlink:href="#b" y1="170.93" y2="160.22"/><linearGradient id="B" gradientTransform="matrix(.39 0 0 .39 183.01 29.66)" x1="-24.01" x2="-32.46" xlink:href="#b" y1="201.23" y2="192.78"/><linearGradient id="C" gradientTransform="matrix(.37814737 -.03747752 .03747752 .37814737 176.38 48.84)" x1="-22.77" x2="-31.22" xlink:href="#b" y1="127.35" y2="118.9"/><linearGradient id="D" x1="-22.53" x2="-33.38" xlink:href="#b" y1="190.93" y2="180.08"/><linearGradient id="E" x1="-132.07" x2="-144.65" xlink:href="#b" y1="193.63" y2="181.05"/><linearGradient id="F" x1="-132.77" x2="-146.43" xlink:href="#b" y1="206.78" y2="193.12"/><linearGradient id="G" x1="-115.8" x2="-129.47" xlink:href="#b" y1="218.71" y2="205.05"/><radialGradient id="H" cx="-355.51" cy="136.1" r="63.48" xlink:href="#a"/><radialGradient id="I" cx="142.84" cy="357.94" gradientTransform="matrix(-.15568555 .67220682 -.67220682 -.15568555 341.11 48.09)" r="6.07" xlink:href="#l"/><linearGradient id="J" gradientTransform="matrix(.39 0 0 .39 183.36 29.57)" x1="-298.63" x2="-309.75" xlink:href="#b" y1="142.15" y2="131.02"/><linearGradient id="K" gradientTransform="matrix(.39 0 0 .39 187.09 32.14)" x1="-321.47" x2="-332.59" xlink:href="#b" y1="141.39" y2="130.27"/><linearGradient id="L" gradientTransform="matrix(.39 0 0 .39 179.39 25.57)" x1="-311.86" x2="-325.01" xlink:href="#b" y1="151.54" y2="138.39"/><linearGradient id="M" gradientTransform="matrix(.39 0 0 .39 182.81 28.84)" x1="-334.75" x2="-346.7" xlink:href="#b" y1="154.32" y2="142.36"/><radialGradient id="N" cx="-51.95" cy="-21.82" r="47.81" xlink:href="#h"/><radialGradient id="O" cx="-31.17" cy="-13.31" r="50.95" xlink:href="#h"/><radialGradient id="P" cx="-5.12" cy="-12.05" r="47.16" xlink:href="#h"/><radialGradient id="Q" cx="-95.6" cy="217.77" r="27.26" xlink:href="#a"/><linearGradient id="R" x1="-107.47" x2="-114.81" xlink:href="#b" y1="205.39" y2="198.06"/><linearGradient id="S" x1="-99.05" x2="-106.16" xlink:href="#b" y1="207.72" y2="200.62"/><linearGradient id="T" x1="-93.43" x2="-99.41" xlink:href="#b" y1="223.44" y2="217.46"/><linearGradient id="U" x1="-94.97" x2="-102.3" xlink:href="#b" y1="215.51" y2="208.18"/><radialGradient id="V" cx="143.14" cy="102.52" gradientUnits="userSpaceOnUse" r="21.22"><stop offset="0" stop-color="#f27179"/><stop offset=".08" stop-color="#ed1c24"/><stop offset=".99" stop-color="#d71920"/></radialGradient><radialGradient id="W" cx="-54.18" cy="19.8" gradientTransform="matrix(1.23 0 0 1.23 174.78 -3.12)" gradientUnits="userSpaceOnUse" r="5.64"><stop offset=".01" stop-color="#a25c38"/><stop offset=".75" stop-color="#772d0f"/><stop offset="1" stop-color="#681d00"/></radialGradient><radialGradient id="X" cx="-54.18" cy="19.8" gradientTransform="matrix(1.23 0 0 1.23 146.09 -3.09)" r="5.64" xlink:href="#W"/><linearGradient id="Y" gradientUnits="userSpaceOnUse" x1="90.6556" x2="90.6556" y1="61.8872" y2="47.1368"><stop offset="0" stop-color="#b11116"/><stop offset=".65" stop-color="#820608"/><stop offset="1" stop-color="#670000"/></linearGradient><path d="m108.45 110.4s6.72 1.54 9.37 6.55c2.31 4.36 10.45 8.86 14.76 3.46-4.33-2.78-10.08-4.84-11.85-9.14s-8.9-5.17-12.28-.87z" fill="url(#a)"/><path d="m114.51 112.21c-.28.53-1.15.61-1.92.19s-1.16-1.2-.87-1.72 1.15-.61 1.92-.19 1.16 1.2.87 1.72z" fill="url(#b)"/><path d="m113.77 112.19c-.14.25-.59.25-1 0s-.64-.63-.5-.88.6-.24 1 0 .64.69.5.88z" fill="#f27179"/><path d="m118.26 112.29c-.29.52-1.15.61-1.92.18s-1.17-1.19-.88-1.72 1.15-.61 1.93-.19 1.16 1.2.87 1.73z" fill="url(#c)"/><path d="m117.52 112.27c-.15.24-.6.24-1 0s-.64-.64-.5-.88.6-.24 1 0 .64.61.5.88z" fill="#f27179"/><path d="m118.31 115c-.26.47-1 .55-1.73.17s-1-1.08-.79-1.56 1-.54 1.73-.16 1.05 1.07.79 1.55z" fill="url(#d)"/><path d="m117.64 115c-.13.22-.54.22-.91 0s-.57-.57-.44-.79.53-.22.9 0 .58.55.45.79z" fill="#f27179"/><path d="m121.23 116.68c-.25.47-1 .54-1.73.16s-1-1.07-.78-1.55 1-.55 1.73-.17 1.05 1.08.78 1.56z" fill="url(#e)"/><path d="m120.56 116.66c-.12.21-.53.21-.9 0s-.58-.58-.45-.8.53-.21.91 0 .57.58.44.8z" fill="#f27179"/><path d="m121.6 119.47c-.29.53-1.15.61-1.92.19s-1.17-1.2-.88-1.73 1.15-.61 1.93-.18 1.16 1.19.87 1.72z" fill="url(#f)"/><path d="m120.66 119.27c-.13.22-.53.22-.91 0s-.57-.58-.44-.79.53-.22.9 0 .58.57.45.79z" fill="#f27179"/><path d="m103.3 74.19s14.79-16.33 25.81-8.58c12.32 8.66 18 1.19 21.66-7 4.2-9.47 18-12.11 23 2.52-6.49-6.6-14.39-6.58-16.68-.13-2.75 7.75-9.77 21.43-20.75 18.36-16.44-4.6-21.06-1.07-23.49 6.93s-9.55-12.1-9.55-12.1z" fill="url(#g)"/><path d="m126.54 74.85s9.24-11.29 20.28 5.65c3.42 5.24 6.52 3.12 8.73-.26 3.85-5.9 8.06-3.78 12.58-1.8 6.41 2.83 4.46-4 9.75-2 4.88 1.8 1.8 7.7 1.8 7.7s1-5.65-3.08-6.16c-3.32-.41-2.83 6.68-8.22 3.59-2.89-1.65-10-2-13.6 7.45-1.35 3.57-6.55 9.88-13.48 3-3.23-3.23-11.16 2.31-11.16 2.31z" fill="url(#h)"/><path d="m38.12 24.93s-1.67-4.75 4-5.14c4.51-.3 6.54 3.69 6.8 7.7 4.49-2.95-1-10.39-1-10.39l-7.06-2.31-4.62 2.44-.64 5.13z" fill="url(#i)"/><path d="m56 68.63s-8.82-4.63-13 3.52c-6.84 13.37-13.35-4.1-22.48-5.48-6.95-1.06-12.82 3.69-11.68 15.53.34-6.79 4-14.37 12.34-10.3 5.52 2.71 2.8 15.15 16 16 8.49.53 7.53-2.35 16.49.58 6.65 2.16 13.33-11.04 2.33-19.85z" fill="url(#j)"/><path d="m52 71.13a32.82 32.82 0 0 1 -4.58-2.79c-2.17 2.22-4.34 3.75-8.11 2.47-.13 0-10-3.26-10-3.24 10.62 10.91 21.35 6.14 22.69 3.56z" fill="url(#k)"/><path d="m45.31 73.7c.26.62 1.21.81 2.11.42s1.43-1.19 1.17-1.81-1.21-.8-2.11-.42-1.43 1.2-1.17 1.81z" fill="url(#l)"/><path d="m46.14 73.77c.13.28.63.33 1.12.11s.78-.64.64-.92-.63-.34-1.11-.11-.79.63-.65.92z" fill="#fed095"/><path d="m36.56 72.29c-.19.5.24 1.14 1 1.43s1.49.13 1.69-.37-.23-1.13-1-1.43-1.49-.12-1.69.37z" fill="url(#m)"/><path d="m37 72.8c-.09.23.17.54.57.69s.8.08.89-.15-.17-.55-.57-.7-.8-.08-.89.16z" fill="#f27179"/><path d="m39 19.64c.06.53.74.9 1.52.81s1.37-.59 1.31-1.12-.74-.9-1.52-.81-1.31.59-1.31 1.12z" fill="url(#n)"/><path d="m39.66 19.88c0 .24.41.4.83.34s.74-.31.71-.56-.41-.4-.83-.34-.74.31-.71.56z" fill="#f27179"/><path d="m44.94 19.91c-.32.43-.06 1.16.57 1.63s1.4.49 1.72.06.06-1.16-.57-1.63-1.4-.49-1.72-.06z" fill="url(#o)"/><path d="m45.24 20.5c-.15.21 0 .57.37.82s.75.28.9.07 0-.57-.38-.81-.75-.28-.89-.08z" fill="#f27179"/><path d="m59.68 63.81s-15.3 12.85-28.83 4.9c-12.8-7.52-7.7-26.8 5.5-32.8 11.07-5 14.89-14.14 10-17.4-6.28-4.17-10.38 2.38-8.87 4.8a5.23 5.23 0 0 0 5.08 2.78s-2.73 2.5-6-.39c-6-5.33.93-15.88 10.4-11 9 4.62 6.23 18.09 0 22.58-9.71 7-13 15.8-9.4 20.83 5.17 7.27 15.18.88 17.49-1.2z" fill="url(#p)"/><path d="m91.06 78.71c24.41 0 44.2-17.13 44.2-38.25s-19.79-38.25-44.2-38.25-44.2 17.13-44.2 38.25 19.79 38.25 44.2 38.25z" fill="url(#q)"/><path d="m106.56 37.73a12 12 0 1 0 -12-12 12 12 0 0 0 12 12z" fill="#f27179"/><path d="m106.56 36.11a12 12 0 1 0 -12-12 12 12 0 0 0 12 12z" fill="#8b0304"/><circle cx="106.51" cy="24.73" fill="url(#r)" r="12.01" transform="matrix(.98516928 -.17158522 .17158522 .98516928 -2.66 18.64)"/><circle cx="74.49" cy="25.61" fill="#f27179" r="12.01"/><path d="m74.55 36.16a12 12 0 1 1 12-12 12 12 0 0 1 -12 12z" fill="#8b0304"/><path d="m74.55 36.74a12 12 0 1 1 12-12 12 12 0 0 1 -12 12z" fill="url(#s)"/><path d="m172.38 111.35s1.65-24-13.3-18.82c1.16-1.73 7.2-5.85 10.85-3.58s6.86 14.49 2.45 22.4z" fill="url(#t)"/><path d="m113.14 87.83s10.68 6.17 12.47 15a13 13 0 0 0 21.6 6.9c-6.71-6.29-13.1-7.46-14.82-15.59s-11.92-12.79-19.25-6.31z" fill="url(#u)"/><path d="m95.55 81.55s11.45-27.91 33.5-14.25c11.13 6.89 7.92 37.9 17.62 33.62 5.63-2.49 4.75-5.65 12.61-13.38 11-10.82 22.33 7.5 13.1 23.81 5.28-16-3.16-28.38-11.37-19.57-8.95 9.61-9.43 22.62-21.37 18.86-10.4-3.27-7.66-22.76-19.09-24.59-14-2.25-16.14 14.49-16.14 14.49z" fill="url(#v)"/><path d="m121.16 93.77c-.68.83-2.22.7-3.44-.3s-1.67-2.47-1-3.31 2.22-.7 3.44.29 1.68 2.48 1 3.32z" fill="url(#w)"/><path d="m119.86 93.49c-.33.38-1.13.24-1.78-.32s-.91-1.33-.59-1.71 1.12-.23 1.78.33.91 1.32.59 1.7z" fill="#f27179"/><path d="m127.72 95.1c-.67.83-2.22.7-3.44-.29s-1.66-2.48-1-3.31 2.22-.71 3.44.29 1.68 2.48 1 3.31z" fill="url(#x)"/><path d="m126.42 94.82c-.33.38-1.12.24-1.77-.32s-.92-1.33-.59-1.71 1.12-.23 1.77.33.92 1.32.59 1.7z" fill="#f27179"/><path d="m126.94 99.88c-.61.75-2 .64-3.1-.26s-1.5-2.23-.89-3 2-.63 3.1.26 1.5 2.25.89 3z" fill="url(#y)"/><path d="m125.76 99.63c-.29.35-1 .22-1.59-.29s-.83-1.19-.53-1.53 1-.21 1.59.29.83 1.19.53 1.53z" fill="#f27179"/><path d="m167.69 93.06c-.41.65-1.52.7-2.48.1s-1.42-1.62-1-2.28 1.53-.7 2.49-.1 1.4 1.62.99 2.28z" fill="url(#z)"/><path d="m166.73 93c-.19.3-.77.27-1.29-.07s-.77-.87-.58-1.17.78-.27 1.3.08.77.84.57 1.16z" fill="#f27179"/><path d="m171.24 95.42c-.62.46-1.67.1-2.35-.81s-.73-2-.11-2.49 1.68-.1 2.36.81.73 2.07.1 2.49z" fill="url(#A)"/><path d="m170.38 95c-.29.21-.82 0-1.18-.54s-.41-1.08-.11-1.29.82 0 1.18.54.41 1.08.11 1.29z" fill="#f27179"/><path d="m172.76 107c-.52.17-1.14-.3-1.39-1.06s0-1.5.49-1.67 1.13.3 1.38 1.06.03 1.54-.48 1.67z" fill="url(#B)"/><path d="m172.28 106.57c-.24.07-.54-.21-.67-.62s0-.81.22-.88.54.2.66.62.03.81-.21.88z" fill="#f27179"/><path d="m171.63 98.63c-.5.22-1.16-.19-1.48-.92s-.18-1.5.31-1.71 1.16.19 1.48.91.18 1.5-.31 1.72z" fill="url(#C)"/><path d="m171.1 98.2c-.23.1-.55-.15-.72-.55s-.11-.8.13-.9.55.15.72.55.11.81-.13.9z" fill="#f27179"/><path d="m172.7 103.39c-.73.25-1.62-.43-2-1.51s0-2.15.69-2.39 1.62.44 2 1.51.05 2.15-.69 2.39z" fill="url(#D)"/><path d="m172 102.72c-.35.1-.77-.29-1-.88s0-1.16.31-1.27.77.29.94.89.12 1.16-.25 1.26z" fill="#f27179"/><path d="m131.55 103.77c-.62.75-2 .63-3.1-.26s-1.5-2.23-.89-3 2-.63 3.1.27 1.49 2.22.89 2.99z" fill="url(#E)"/><path d="m130.37 103.52c-.29.34-1 .21-1.6-.29s-.82-1.19-.53-1.54 1-.21 1.6.3.82 1.19.53 1.53z" fill="#f27179"/><path d="m131.29 108.8c-.68.84-2.22.71-3.44-.29s-1.67-2.48-1-3.31 2.22-.7 3.44.29 1.71 2.51 1 3.31z" fill="url(#F)"/><path d="m130 108.53c-.32.38-1.12.23-1.77-.33s-.91-1.32-.59-1.7 1.12-.23 1.78.33.89 1.32.58 1.7z" fill="#f27179"/><path d="m137.82 113.4c-.68.83-2.22.7-3.44-.3s-1.67-2.47-1-3.31 2.22-.7 3.45.3 1.67 2.47.99 3.31z" fill="url(#G)"/><path d="m136.52 113.12c-.33.38-1.12.24-1.78-.32s-.91-1.33-.59-1.71 1.13-.23 1.78.33.91 1.32.59 1.7z" fill="#f27179"/><path d="m69 73.53s12.17-13.66 11.9 22.63c-20-23.49-40.56-.26-40.56-.26l.17-10.82s11.49-13.86 28.49-11.55z" fill="url(#H)"/><path d="m71.36 87.54c-.73 1.14 0 2.94 1.68 4s3.62 1 4.35-.1 0-2.94-1.68-4-3.61-1.03-4.35.1z" fill="url(#I)"/><path d="m72.2 89c-.33.54.15 1.43 1.07 2s1.94.58 2.27 0-.15-1.43-1.07-2-1.94-.54-2.27 0z" fill="#fed095"/><path d="m63.88 82.85c.2 1 1.49 1.49 2.89 1.19s2.37-1.3 2.17-2.26-1.49-1.48-2.89-1.19-2.37 1.3-2.17 2.26z" fill="url(#J)"/><path d="m65 83.17c.11.44.81.65 1.57.47s1.28-.68 1.18-1.13-.75-.65-1.52-.51-1.29.72-1.23 1.17z" fill="#f27179"/><path d="m58.81 85.12c.2 1 1.5 1.49 2.89 1.2s2.37-1.3 2.18-2.26-1.5-1.48-2.9-1.19-2.37 1.3-2.17 2.25z" fill="url(#K)"/><path d="m60 85.44c.1.45.8.66 1.56.48s1.29-.68 1.18-1.13-.8-.65-1.56-.47-1.31.68-1.18 1.12z" fill="#f27179"/><path d="m53.81 82.34c.3 1.18 1.95 1.78 3.68 1.34s2.9-1.75 2.6-2.93-2-1.78-3.68-1.35-2.89 1.75-2.6 2.94z" fill="url(#L)"/><path d="m55.29 82.68c.15.54 1 .77 2 .51s1.58-.92 1.42-1.47-1-.78-2-.51-1.58.92-1.42 1.47z" fill="#f27179"/><path d="m49.05 87.08c.36 1 1.88 1.44 3.4.91s2.45-1.8 2.09-2.84-1.89-1.44-3.4-.91-2.46 1.76-2.09 2.84z" fill="url(#M)"/><path d="m50.39 87.26c.18.48 1 .62 1.82.3s1.33-1 1.15-1.43-1-.61-1.81-.3-1.34.95-1.16 1.43z" fill="#f27179"/><path d="m84.7 96.34c-.87 0-3.46 2.51-5.77 1.74 0 0-3.46-17.71-15.53-18.61-10.94-.81-12.79 3.93-21.82 17.84-9.24 14.25-15.41-1.82-25.79-2.69-13.67-1.16-15.79 14.82-15.79 14.82s-.38-16.75 11.55-20c7.89-2.16 12.4 1.84 15.6 2.5 4.62 1 8.45-2.67 9.24-8.66 4.42-33.58 51.2-27.17 48.31 13.06z" fill="url(#N)"/><path d="m72 67.67c11.06-5.9 24.06 2.4 20.6 24.73-2.89 18.6-24.69 25.3-38.7 13.77-6.54-5.39-11.08-3-15.78 1.54-3.85 3.72-10.49 3.3-13.35.51-4.75-4.62-7.31-5.39-10.52-4.11-1.25.5-2.31 1.67-3.72 3.08 1.66-5.26 5.64-8.34 17.78-3.51 8.76 3.48 8.27-18.24 23.41-10 10.68 5.84 14.52 6.64 17.59.51 1.15-2.31-.37-5.58-1.93-9.24-3.33-5.33-.87-14.36 4.62-17.28z" fill="url(#O)"/><path d="m136.56 105.78c-3.86 4.82-2 8.18-5.4 11-4.81 4-4-11.24-11.61-16-2.41-1.53-7.12-.58-4.81-5.63 2.88-6.31 7.21-17.06-2.12-24.21-9.05-6.93-17.13 1.54-17.13 1.54-5.2 5.68-5.59 16.94-3.66 24.45 1.06 4.13 6.22 13 12.66 14.2 5.88 1.05 9.86-8.81 17.13 2.56 1.69 3 4.4 8.58 7.88 8.78 6.67.38 4.28-7.93 8.37-14 3.6-5.38 9.82.31 8.52 9.63 4.06-10.01-4.6-18.86-9.83-12.32z" fill="url(#P)"/><path d="m146.39 118.07s-2.27-14.13-9.21-9c.46-1.08 2.39-4.42 5.61-3.07 2.21.92 5.21 7.27 3.6 12.07z" fill="url(#Q)"/><path d="m141.1 108.11c-.16.4-.77.54-1.36.31s-.94-.75-.78-1.16.77-.54 1.36-.3.94.75.78 1.15z" fill="url(#R)"/><path d="m140.57 108.16c-.08.19-.4.23-.72.09s-.52-.4-.44-.58.41-.23.73-.09.51.42.43.58z" fill="#f27179"/><path d="m144.16 109.41c-.29.32-.91.22-1.38-.21s-.6-1-.3-1.35.91-.23 1.37.2.61 1.04.31 1.36z" fill="url(#S)"/><path d="m143.64 109.27c-.14.14-.45.06-.7-.18s-.33-.56-.19-.7.45-.07.7.17.34.56.19.71z" fill="#f27179"/><path d="m146.08 115.6c-.26.15-.65 0-.86-.44a.72.72 0 0 1 .09-1c.27-.15.66 0 .87.44s.17.86-.1 1z" fill="url(#T)"/><path d="m145.77 115.39c-.12.07-.31-.06-.42-.27s-.1-.45 0-.51.32.06.43.27.12.45-.01.51z" fill="#f27179"/><path d="m145.4 112.59c-.38.21-.94-.07-1.24-.63s-.24-1.18.14-1.39.93.08 1.24.64.24 1.17-.14 1.38z" fill="url(#U)"/><path d="m145 112.29c-.18.09-.45-.08-.61-.39s-.14-.64 0-.73.46.09.61.39.13.64 0 .73z" fill="#f27179"/><path d="m136.56 105.78c-3.86 4.82-2 8.18-5.4 11a2.88 2.88 0 0 1 -.35.26v5.33c5-.76 3.26-8.31 7.06-14 3.6-5.38 9.82.31 8.52 9.63 4.06-9.91-4.6-18.76-9.83-12.22z" fill="url(#V)"/><path d="m105.1 21.49a4 4 0 1 0 -3.95-3.95 4 4 0 0 0 3.95 3.95z" fill="url(#W)"/><path d="m104.81 19.4a2.16 2.16 0 1 0 -2.16-2.16 2.16 2.16 0 0 0 2.16 2.16z" fill="#231f20"/><path d="m103.72 16.55a.74.74 0 1 0 -.74-.74.73.73 0 0 0 .74.74z" fill="#fff"/><path d="m76.41 21.52a3.95 3.95 0 1 0 -4-3.95 4 4 0 0 0 4 3.95z" fill="url(#X)"/><path d="m76.12 19.43a2.16 2.16 0 1 0 -2.12-2.16 2.16 2.16 0 0 0 2.12 2.16z" fill="#231f20"/><path d="m75 16.59a.73.73 0 0 0 .74-.74.74.74 0 1 0 -.74.74z" fill="#fff"/><path d="m104.61 53.46c0 6.37-6.23 11.54-13.91 11.54s-13.91-5.17-13.91-11.54 6.21-11.52 13.91-11.52 13.91 5.15 13.91 11.52z" fill="#8b0304"/><path d="m104.61 52.16c0 6.37-6.23 11.53-13.91 11.53s-13.91-5.16-13.91-11.53 6.21-11.53 13.91-11.53 13.91 5.16 13.91 11.53z" fill="#ffd400"/><path d="m102.46 51.78c0 5.39-5.27 9.75-11.76 9.75s-11.76-4.36-11.76-9.75 5.27-9.78 11.76-9.78 11.76 4.4 11.76 9.78z" fill="url(#Y)"/><g fill="#662d91"><path d="m93.68 8 2 5.29s10.62-6.14 22.67-6.52a19.63 19.63 0 0 0 -7.51-1.45s3-2.14 5.09-2.14a13.13 13.13 0 0 0 -6.56-.27 13.66 13.66 0 0 1 3-2.94s-12.27 3.2-18.69 8.03z"/><path d="m87.76 8-2 5.29s-10.61-6.11-22.66-6.49a19.69 19.69 0 0 1 7.51-1.45s-2.94-2.14-5.09-2.14a13.16 13.16 0 0 1 6.57-.27 13.66 13.66 0 0 0 -3-2.94s12.25 3.17 18.67 8z"/></g></svg>