<svg viewBox="0 0 175.49 111.32" xmlns="http://www.w3.org/2000/svg" xmlns:xlink="http://www.w3.org/1999/xlink"><linearGradient id="a" gradientTransform="matrix(.95 0 0 .95 195.9 -22.89)" gradientUnits="userSpaceOnUse" x1="-66.99" x2="-69.06" y1="66.96" y2="73.19"><stop offset="0" stop-color="#939598"/><stop offset="1" stop-color="#58595b"/></linearGradient><linearGradient id="b" x1="-66.72" x2="-60.12" xlink:href="#a" y1="102.88" y2="102.88"/><linearGradient id="c" x1="-160.67" x2="-134.72" xlink:href="#a" y1="135.16" y2="135.16"/><linearGradient id="d" x1="-108.23" x2="-114.89" xlink:href="#a" y1="54.05" y2="69.34"/><radialGradient id="e" cx="35.901" cy="77.696" gradientUnits="userSpaceOnUse" r="16.8055"><stop offset="0" stop-color="#ed1c24"/><stop offset=".18" stop-color="#e81b22"/><stop offset=".39" stop-color="#d9171d"/><stop offset=".63" stop-color="#c01015"/><stop offset=".89" stop-color="#9d080a"/><stop offset="1" stop-color="#8b0304"/></radialGradient><radialGradient id="f" cx="-116.25" cy="30.62" gradientTransform="matrix(.95 0 0 .95 195.9 -22.89)" r="68.24" xlink:href="#a"/><linearGradient id="g" gradientTransform="matrix(.95 0 0 .95 195.9 -22.89)" gradientUnits="userSpaceOnUse" x1="-154.09" x2="-153.17" y1="108.5" y2="106.56"><stop offset="0" stop-color="#fff"/><stop offset="1" stop-color="#a7a9ac"/></linearGradient><linearGradient id="h" gradientTransform="matrix(.95 0 0 .95 191.77 -25.33)" x1="-154.09" x2="-153.17" xlink:href="#g" y1="108.5" y2="106.56"/><linearGradient id="i" gradientTransform="matrix(-.59177811 .743168 -.743168 -.59177811 601.15 661.15)" x1="-99.16" x2="-98.25" xlink:href="#g" y1="833.39" y2="831.45"/><radialGradient id="j" cx="-140.28" cy="152.62" gradientTransform="matrix(.95 0 0 .95 195.9 -22.89)" gradientUnits="userSpaceOnUse" r="63.77"><stop offset="0" stop-color="#fff"/><stop offset="1" stop-color="#bcbec0"/></radialGradient><radialGradient id="k" cx="-168.27" cy="63.53" gradientTransform="matrix(.36569276 .87679462 -.87679462 .36569276 157.04 162.22)" r="7.28" xlink:href="#j"/><linearGradient id="l" x1="-96.12" x2="-110.14" xlink:href="#a" y1="108.68" y2="140.88"/><radialGradient id="m" cx="-81.09" cy="112.66" r="14.31" xlink:href="#j"/><path d="m125.21 48.91s6.47-4.67 7.72-3.95.18 5.39.18 5.39z" fill="url(#a)"/><path d="m132.21 78.2s3.27.82 5.31-.81.41-5.52.41-5.52z" fill="url(#b)"/><path d="m53.51 100.48s-8.18 5.32-10.83 10.84c0 0 16.14-8.79 24.73-9 0 0-9.2-1.84-13.9-1.84z" fill="url(#c)"/><path d="m76.19 40.67s15-17.39 28-14.8c0 0-10.71 11.21-9 19.71a8 8 0 0 0 .22.84c2.59 8.58-19.22-5.75-19.22-5.75z" fill="url(#d)"/><path d="m44.25 75.18s-13.56 18.17-9.44 22.58c6.45-.26 18.11-4.76 18.11-4.76l8.95-8z" fill="url(#e)"/><path d="m152.39 47.21c-.63-7.56 2-17.51 4-25.45l-3.83-1.76 5.13-2.81a57.55 57.55 0 0 1 9.22-17.19 79.34 79.34 0 0 0 -22 15.32c-8.93 9.16-4.89 33.12-4.89 33.12s-37.43.44-68.69-12.33c-37.93-15.5-72.39-33.83-71.33-18.06.87 12.78 16.29 44 23.33 48.88s29.8 11.4 29.1 14.07c-2.21 8.37-19.82 14.54-17.62 16.74s68.69 26.88 109.19-32.57c0 0 16.2 20.23 31.47 20-16.21-16-19.07-23.45-23.08-37.96z" fill="url(#f)"/><path d="m48.79 77.6s-.28 3.83.15 4.26 2.41-2.7 2.41-2.7z" fill="url(#g)"/><path d="m44.66 75.17s-.28 3.83.14 4.26 2.42-2.7 2.42-2.7z" fill="url(#h)"/><path d="m41.17 94s-2.83-2.61-3.43-2.54.61 3.57.61 3.57z" fill="url(#i)"/><path d="m148.86 51.52s-13.68 29.48-53.48 28.41c-39.38-1.11-73.78-41.18-82.59-51.75-6.03-7.24-10.15-11.54-12.7-11.87a8.17 8.17 0 0 0 -.09 1.74c.87 12.78 16.29 44 23.33 48.88s29.8 11.4 29.1 14.07c-2.21 8.37-19.82 14.54-17.62 16.74s69.38 27.16 109.19-32.57c2.92-7.08 4.86-13.65 4.86-13.65z" fill="url(#j)"/><circle cx="37.57" cy="40.5" fill="url(#k)" r="3.7" transform="matrix(.38493975 -.9229417 .9229417 .38493975 -14.28 59.58)"/><g fill="#231f20"><path d="m35.15 38.37a1.91 1.91 0 0 0 -.68.13 3.6 3.6 0 0 0 -.2 3.64 2 2 0 0 0 .88.21 2 2 0 0 0 0-4z"/><path d="m62.3 52.73s5.26 5.68 2.7 15.77c0 0 .14-8.67-2.7-15.77z"/><path d="m66 53.86s5.26 5.69 2.7 15.78c-.01 0 .13-8.64-2.7-15.78z"/><path d="m69.12 55.14s5.26 5.69 2.7 15.78c0 0 .18-8.67-2.7-15.78z"/></g><path d="m85.36 89.78c-1.18-7.78-4.47-7.78-5.17-13.86 0 0 .22-.43.46-.94 0 0 17.86 12.69 23.74 14.33 0 0 .74 14.86 14.1 18.8a2.83 2.83 0 0 0 -.12 1s-30.05.23-33.01-19.33z" fill="#58595b"/><path d="m85.82 88.84c-1.17-7.75-4.46-7.75-5.17-13.86 0 0 7.29 3.29 12.46 2.82 0 0 5.87 8.93 11.75 10.57 0 0 1.41 14.1 13.63 19.74 0 0-29.7.29-32.67-19.27z" fill="url(#l)"/><path d="m117.08 88s4.5-1.63 7.16-2.86c0 0 3.26 8.18 6.74 9.41.02.01-8.38 3.89-13.9-6.55z" fill="url(#m)"/></svg>