<svg viewBox="0 0 159.6 161.73" xmlns="http://www.w3.org/2000/svg" xmlns:xlink="http://www.w3.org/1999/xlink"><linearGradient id="a" gradientTransform="matrix(1.03 .22 -.22 1.03 47.35 20.02)" gradientUnits="userSpaceOnUse" x1="-15.3" x2="-6.06" y1="125.09" y2="115.56"><stop offset="0" stop-color="#6d6e71"/><stop offset=".38" stop-color="#545355"/><stop offset="1" stop-color="#231f20"/></linearGradient><linearGradient id="b" gradientTransform="matrix(1.05 0 0 1.05 2.05 -47.88)" x1="8.6" x2="28.26" xlink:href="#a" y1="85.06" y2="89.71"/><linearGradient id="c" gradientTransform="matrix(1.03 .22 -.22 1.03 46.79 10.16)" gradientUnits="userSpaceOnUse" x1="44.64" x2="71.24" y1="11.85" y2="95.05"><stop offset="0" stop-color="#fff2d9"/><stop offset=".37" stop-color="#f9dbbd"/><stop offset=".88" stop-color="#eeb490"/><stop offset="1" stop-color="#fdd1b0"/></linearGradient><linearGradient id="d" gradientTransform="matrix(1.03 .22 -.22 1.03 46.79 10.16)" gradientUnits="userSpaceOnUse" x1="90.84" x2="82.24" y1="15.56" y2="5.66"><stop offset="0" stop-color="#fff"/><stop offset=".18" stop-color="#f9f9f9"/><stop offset=".43" stop-color="#e7e8e9"/><stop offset=".72" stop-color="#cbccce"/><stop offset="1" stop-color="#a7a9ac"/></linearGradient><radialGradient id="e" cx="29.04" cy="1.95" gradientTransform="matrix(1.03 .22 -.22 1.03 46.79 10.16)" gradientUnits="userSpaceOnUse" r="96.31"><stop offset="0" stop-color="#6d6e71"/><stop offset=".83" stop-color="#231f20"/><stop offset="1" stop-color="#4d4d4f"/></radialGradient><radialGradient id="f" cx="56.58" cy="23.28" gradientTransform="matrix(1.03 .22 -.22 1.03 46.79 10.16)" gradientUnits="userSpaceOnUse" r="14.26"><stop offset=".3" stop-color="#fff"/><stop offset=".46" stop-color="#fafafa"/><stop offset=".65" stop-color="#eaeaeb"/><stop offset=".86" stop-color="#d0d2d3"/><stop offset="1" stop-color="#bcbec0"/></radialGradient><linearGradient id="g" gradientTransform="matrix(.40048837 .20520493 -.20520493 .40048837 783.59 2553.14)" gradientUnits="userSpaceOnUse" x1="-3834.83" x2="-3846.76" y1="-4207.2" y2="-4235.96"><stop offset="0" stop-color="#27bdbe"/><stop offset="1" stop-color="#008283"/></linearGradient><linearGradient id="h" gradientTransform="matrix(.40048837 .20520493 -.20520493 .40048837 784.08 2553.71)" x1="-3861.21" x2="-3869.34" xlink:href="#a" y1="-4147.72" y2="-4098.12"/><linearGradient id="i" gradientTransform="matrix(1.03 .22 -.22 1.03 46.79 10.16)" x1="-8.56" x2="7.34" xlink:href="#a" y1="105.49" y2="131.3"/><path d="m19.23 117.89s-.3 9.78-.74 12.26-.39 8.65-.73 10.84-3.68 8.5-8.19 10.86l6.25-12.26 1.26-8.26z" fill="#6d6e71"/><path d="m20.15 124.76s-3 8.71-2.91 13c.21 7.95-7.67 14.11-7.67 14.11s2.45-5.27-.63-7.37c-2-1.35-6.38 1-8.94-1.48 3.64-9.39 20.15-18.26 20.15-18.26z" fill="url(#a)"/><path d="m39.38 44.24s-3.31 1.65-4 3-4 7.3-9.37 7.3c-8.41 0-12.7-5-12.7-5l13.26-3.71z" fill="#6d6e71"/><path d="m34.53 38.31c5.84 1.69 9 1.88 13.84 4a13.35 13.35 0 0 0 -5.76 3.41c-4.11 4-10.32 8-16.4 7.87-6.67-.17-12.93-4.1-12.93-4.1s13.41-13.49 21.25-11.18z" fill="url(#b)"/><path d="m159.28 33.49s-10.07 32.87-30.37 44.91-27.74 8.5-42.79 17.17c-31.82 18.33-56.12 13.28-57.69 10.31-2.32-4.41 38.47-44.31 38.47-44.31l33.23-32.41z" fill="url(#c)"/><path d="m152.37 27.34 5.1 1.55s1.23 1.76 1.31 1.86-.42 3-.42 3l-3.59 3.34-1.69.39-1.37-3.25z" fill="#231f20"/><path d="m152.65 24.11s2 8.15.82 13c0 0-31.78 18.81-38.82 17.25s2.35-17.18 2.35-17.18l20.35-14.45z" fill="url(#d)"/><path d="m153.43 28.18s5-.4 5 3.84c0 5.16-40.07 21.46-42.06 22.11s-21.03 7.87-21.03 7.87l-2 1.47a22.41 22.41 0 0 0 11 1.76c6.12-.6 10-5.61 12.84-9.31 2-2.6 40.72-15.7 42.31-22.9a4.63 4.63 0 0 0 -2.65-5.56 8.77 8.77 0 0 0 -3.67-.78z" fill="#fff2d9"/><path d="m85.23 3.83c37.48-11.33 66.93 4.76 70.77 18.49 1.41 5-30.87 18.44-36.31 28.17-6.21 11.13-13.74 15.76-22.85 14-14.39-2.75-20.84 19.51-42.36 29.66-5.17 2.43-11.4 5.21-17.77 10.43-12.83 10.51-19.8 36.87-19.8 36.87s-12.58-38.45-1.97-65.27c6.78-17.12 15.67-30.53 25.32-39.18 9.92-8.84 26.53-27.59 44.97-33.17z" fill="url(#e)"/><path d="m112.27 55.48a8.55 8.55 0 1 1 -3.71-11.48 8.55 8.55 0 0 1 3.71 11.48z" fill="#231f20"/><path d="m112.48 56.52a8.57 8.57 0 1 1 -3.72-11.52 8.58 8.58 0 0 1 3.72 11.52z" fill="#58595b"/><path d="m112.13 56a8.34 8.34 0 1 1 -3.62-11.23 8.34 8.34 0 0 1 3.62 11.23z" fill="url(#f)"/><path d="m109.19 52.91a5.19 5.19 0 1 1 -2.25-7 5.19 5.19 0 0 1 2.25 7z" fill="url(#g)"/><path d="m107.06 50.73a2.79 2.79 0 1 1 -1.21-3.73 2.79 2.79 0 0 1 1.21 3.73z" fill="#231f20"/><path d="m104.81 48a1.15 1.15 0 1 1 -.5-1.55 1.15 1.15 0 0 1 .5 1.55z" fill="#fff"/><path d="m92.24 65.62s-1.86 4.82-2.51 7c-1.6 5.46-4.89 14.27-12.21 18s-15.52 2.24-15.52 2.24l14.6-15.19z" fill="#58595b"/><path d="m77.87 71.25c6.8-3.11 8.45-5.13 14.47-5.83a15.3 15.3 0 0 0 -3.68 6.69c-1.72 6.32-5.47 13.89-11.53 17.26-6.65 3.71-15.13 3.49-15.13 3.49s7.4-17.74 15.87-21.61z" fill="url(#h)"/><path d="m21.14 115.36s3.38 8.84 5.18 15.37c.88 3.21 4 10.75 4.49 13.64a21.5 21.5 0 0 1 -4.62 17.36l2.68-11.38-8.65-22.78z" fill="#6d6e71"/><path d="m21.14 115.36s5.17 20.11 7.43 25.29c4.2 9.63-2.38 21.08-2.38 21.08s1.86-10.5-2.88-11.75c-4.07-1.08-5.85-4.74-6.4-8.53-.42-12.14 4.23-26.09 4.23-26.09z" fill="url(#i)"/><path d="m76.07 13.22c-2 1.12-3.93 1.5-4.3.84s1-2.11 3-3.24 3.89-1.5 4.23-.82-.93 2.09-2.93 3.22z" fill="#808285"/><path d="m75.89 12.9c-1.47.83-2.89 1.11-3.16.62s.7-1.55 2.17-2.38 2.89-1.11 3.17-.62-.7 1.55-2.18 2.38z" fill="#231f20"/></svg>